<?xml version="1.0" standalone="no"?>
<!DOCTYPE svg PUBLIC "-//W3C//DTD SVG 20010904//EN"
 "http://www.w3.org/TR/2001/REC-SVG-20010904/DTD/svg10.dtd">
<svg version="1.0" xmlns="http://www.w3.org/2000/svg"
 width="118.000000pt" height="152.000000pt" viewBox="0 0 118.000000 152.000000"
 preserveAspectRatio="xMidYMid meet">

<g transform="translate(0.000000,152.000000) scale(0.100000,-0.100000)"
fill="#000000" stroke="none">
<path d="M532 1435 c-35 -8 -91 -29 -125 -48 -50 -27 -71 -46 -109 -103 -55
-81 -100 -196 -134 -346 -28 -124 -28 -128 -11 -128 8 0 23 42 41 118 54 226
129 369 220 421 127 73 309 82 381 18 19 -16 125 -233 125 -254 0 -2 -16 -3
-35 -3 -30 0 -35 3 -35 23 -1 53 -72 166 -122 193 -22 12 -31 12 -48 2 -40
-26 -87 -179 -71 -235 28 -98 152 -283 189 -283 12 0 12 4 -2 19 -17 19 -17
22 6 79 21 55 26 60 58 65 19 3 49 9 66 12 l32 7 12 -73 c15 -95 19 -109 32
-109 11 0 7 62 -8 157 -6 39 -6 39 35 52 23 6 41 18 41 25 0 21 -32 43 -72 50
-35 6 -37 8 -86 128 -56 136 -88 183 -138 204 -51 21 -169 26 -242 9z m221
-180 c26 -30 57 -91 57 -115 0 -19 -6 -20 -85 -20 -76 0 -85 2 -85 18 0 29 26
110 45 138 18 27 27 24 68 -21z m180 -165 c115 -17 147 -39 90 -61 -55 -21
-180 -47 -251 -53 l-73 -5 -25 52 c-13 29 -24 58 -24 65 0 15 179 17 283 2z
m-156 -165 c-12 -42 -21 -41 -48 3 l-21 32 40 0 40 0 -11 -35z"/>
<path d="M311 928 c-40 -84 -48 -118 -27 -118 9 0 16 6 16 13 0 6 16 43 34 82
19 38 32 73 30 77 -11 18 -24 5 -53 -54z"/>
<path d="M556 911 c-3 -4 -2 -28 2 -51 9 -53 32 -66 32 -18 0 60 -18 96 -34
69z"/>
</g>
</svg>
