<?xml version="1.0" standalone="no"?>
<!DOCTYPE svg PUBLIC "-//W3C//DTD SVG 20010904//EN"
 "http://www.w3.org/TR/2001/REC-SVG-20010904/DTD/svg10.dtd">
<svg version="1.0" xmlns="http://www.w3.org/2000/svg"
 width="100.000000pt" height="49.000000pt" viewBox="0 0 100.000000 49.000000"
 preserveAspectRatio="xMidYMid meet">

<g transform="translate(0.000000,49.000000) scale(0.100000,-0.100000)"
fill="#000000" stroke="none">
<path d="M63 465 c-28 -19 -36 -58 -24 -118 10 -56 5 -87 -15 -87 -21 0 -17
-23 7 -43 11 -10 18 -24 16 -31 -3 -7 -8 -37 -12 -67 -6 -46 -4 -58 15 -82 15
-18 31 -27 51 -27 35 0 38 17 5 29 -32 13 -36 30 -29 106 4 45 2 69 -7 80 -10
12 -10 18 0 30 9 11 11 37 7 90 -7 77 4 105 39 105 8 0 14 7 14 15 0 20 -39
20 -67 0z"/>
<path d="M870 465 c0 -8 6 -15 14 -15 36 0 46 -28 39 -110 -5 -69 -4 -80 11
-86 16 -6 16 -8 0 -25 -14 -15 -16 -31 -11 -84 7 -76 3 -93 -29 -106 -33 -12
-30 -29 5 -29 20 0 36 9 50 26 19 24 21 35 15 104 -6 66 -4 78 10 83 20 8 21
33 1 41 -12 4 -15 22 -13 92 3 80 1 87 -21 105 -28 23 -71 25 -71 4z"/>
<path d="M200 265 l0 -185 115 0 c108 0 115 1 115 20 0 19 -7 20 -90 20 l-90
0 0 65 0 65 70 0 c63 0 70 2 70 20 0 18 -7 20 -70 20 l-70 0 0 60 0 60 90 0
c83 0 90 1 90 20 0 19 -7 20 -115 20 l-115 0 0 -185z"/>
<path d="M500 265 c0 -177 1 -185 20 -185 18 0 20 8 22 143 l3 142 109 -142
c71 -93 115 -143 128 -143 17 0 18 12 18 185 0 177 -1 185 -20 185 -18 0 -20
-8 -22 -142 l-3 -143 -109 143 c-72 94 -115 142 -127 142 -18 0 -19 -11 -19
-185z"/>
</g>
</svg>
